<?xml version="1.0" encoding="utf-8" standalone="no"?>
<!DOCTYPE svg PUBLIC "-//W3C//DTD SVG 1.1//EN"
  "http://www.w3.org/Graphics/SVG/1.1/DTD/svg11.dtd">
<svg xmlns:xlink="http://www.w3.org/1999/xlink" width="936pt" height="288pt" viewBox="0 0 936 288" xmlns="http://www.w3.org/2000/svg" version="1.1">
 <metadata>
  <rdf:RDF xmlns:dc="http://purl.org/dc/elements/1.1/" xmlns:cc="http://creativecommons.org/ns#" xmlns:rdf="http://www.w3.org/1999/02/22-rdf-syntax-ns#">
   <cc:Work>
    <dc:type rdf:resource="http://purl.org/dc/dcmitype/StillImage"/>
    <dc:date>2024-02-04T13:08:37.806790</dc:date>
    <dc:format>image/svg+xml</dc:format>
    <dc:creator>
     <cc:Agent>
      <dc:title>Matplotlib v3.8.2, https://matplotlib.org/</dc:title>
     </cc:Agent>
    </dc:creator>
   </cc:Work>
  </rdf:RDF>
 </metadata>
 <defs>
  <style type="text/css">*{stroke-linejoin: round; stroke-linecap: butt}</style>
 </defs>
 <g id="figure_1">
  <g id="patch_1">
   <path d="M 0 288 
L 936 288 
L 936 0 
L 0 0 
z
" style="fill: #ffffff"/>
  </g>
  <g id="axes_1">
   <g id="patch_2">
    <path d="M 47.72 242.008 
L 304.2 242.008 
L 304.2 10.8 
L 47.72 10.8 
z
" style="fill: #ffffff"/>
   </g>
   <g id="matplotlib.axis_1">
    <g id="xtick_1">
     <g id="line2d_1">
      <defs>
       <path id="me0197a735e" d="M 0 0 
L 0 3.5 
" style="stroke: #000000; stroke-width: 0.8"/>
      </defs>
      <g>
       <use xlink:href="#me0197a735e" x="59.378182" y="242.008" style="stroke: #000000; stroke-width: 0.8"/>
      </g>
     </g>
     <g id="text_1">
      <!-- 0.0 -->
      <g transform="translate(51.426619 256.606437) scale(0.1 -0.1)">
       <defs>
        <path id="DejaVuSans-30" d="M 2034 4250 
Q 1547 4250 1301 3770 
Q 1056 3291 1056 2328 
Q 1056 1369 1301 889 
Q 1547 409 2034 409 
Q 2525 409 2770 889 
Q 3016 1369 3016 2328 
Q 3016 3291 2770 3770 
Q 2525 4250 2034 4250 
z
M 2034 4750 
Q 2819 4750 3233 4129 
Q 3647 3509 3647 2328 
Q 3647 1150 3233 529 
Q 2819 -91 2034 -91 
Q 1250 -91 836 529 
Q 422 1150 422 2328 
Q 422 3509 836 4129 
Q 1250 4750 2034 4750 
z
" transform="scale(0.015625)"/>
        <path id="DejaVuSans-2e" d="M 684 794 
L 1344 794 
L 1344 0 
L 684 0 
L 684 794 
z
" transform="scale(0.015625)"/>
       </defs>
       <use xlink:href="#DejaVuSans-30"/>
       <use xlink:href="#DejaVuSans-2e" x="63.623047"/>
       <use xlink:href="#DejaVuSans-30" x="95.410156"/>
      </g>
     </g>
    </g>
    <g id="xtick_2">
     <g id="line2d_2">
      <g>
       <use xlink:href="#me0197a735e" x="106.010909" y="242.008" style="stroke: #000000; stroke-width: 0.8"/>
      </g>
     </g>
     <g id="text_2">
      <!-- 0.2 -->
      <g transform="translate(98.059347 256.606437) scale(0.1 -0.1)">
       <defs>
        <path id="DejaVuSans-32" d="M 1228 531 
L 3431 531 
L 3431 0 
L 469 0 
L 469 531 
Q 828 903 1448 1529 
Q 2069 2156 2228 2338 
Q 2531 2678 2651 2914 
Q 2772 3150 2772 3378 
Q 2772 3750 2511 3984 
Q 2250 4219 1831 4219 
Q 1534 4219 1204 4116 
Q 875 4013 500 3803 
L 500 4441 
Q 881 4594 1212 4672 
Q 1544 4750 1819 4750 
Q 2544 4750 2975 4387 
Q 3406 4025 3406 3419 
Q 3406 3131 3298 2873 
Q 3191 2616 2906 2266 
Q 2828 2175 2409 1742 
Q 1991 1309 1228 531 
z
" transform="scale(0.015625)"/>
       </defs>
       <use xlink:href="#DejaVuSans-30"/>
       <use xlink:href="#DejaVuSans-2e" x="63.623047"/>
       <use xlink:href="#DejaVuSans-32" x="95.410156"/>
      </g>
     </g>
    </g>
    <g id="xtick_3">
     <g id="line2d_3">
      <g>
       <use xlink:href="#me0197a735e" x="152.643636" y="242.008" style="stroke: #000000; stroke-width: 0.8"/>
      </g>
     </g>
     <g id="text_3">
      <!-- 0.4 -->
      <g transform="translate(144.692074 256.606437) scale(0.1 -0.1)">
       <defs>
        <path id="DejaVuSans-34" d="M 2419 4116 
L 825 1625 
L 2419 1625 
L 2419 4116 
z
M 2253 4666 
L 3047 4666 
L 3047 1625 
L 3713 1625 
L 3713 1100 
L 3047 1100 
L 3047 0 
L 2419 0 
L 2419 1100 
L 313 1100 
L 313 1709 
L 2253 4666 
z
" transform="scale(0.015625)"/>
       </defs>
       <use xlink:href="#DejaVuSans-30"/>
       <use xlink:href="#DejaVuSans-2e" x="63.623047"/>
       <use xlink:href="#DejaVuSans-34" x="95.410156"/>
      </g>
     </g>
    </g>
    <g id="xtick_4">
     <g id="line2d_4">
      <g>
       <use xlink:href="#me0197a735e" x="199.276364" y="242.008" style="stroke: #000000; stroke-width: 0.8"/>
      </g>
     </g>
     <g id="text_4">
      <!-- 0.6 -->
      <g transform="translate(191.324801 256.606437) scale(0.1 -0.1)">
       <defs>
        <path id="DejaVuSans-36" d="M 2113 2584 
Q 1688 2584 1439 2293 
Q 1191 2003 1191 1497 
Q 1191 994 1439 701 
Q 1688 409 2113 409 
Q 2538 409 2786 701 
Q 3034 994 3034 1497 
Q 3034 2003 2786 2293 
Q 2538 2584 2113 2584 
z
M 3366 4563 
L 3366 3988 
Q 3128 4100 2886 4159 
Q 2644 4219 2406 4219 
Q 1781 4219 1451 3797 
Q 1122 3375 1075 2522 
Q 1259 2794 1537 2939 
Q 1816 3084 2150 3084 
Q 2853 3084 3261 2657 
Q 3669 2231 3669 1497 
Q 3669 778 3244 343 
Q 2819 -91 2113 -91 
Q 1303 -91 875 529 
Q 447 1150 447 2328 
Q 447 3434 972 4092 
Q 1497 4750 2381 4750 
Q 2619 4750 2861 4703 
Q 3103 4656 3366 4563 
z
" transform="scale(0.015625)"/>
       </defs>
       <use xlink:href="#DejaVuSans-30"/>
       <use xlink:href="#DejaVuSans-2e" x="63.623047"/>
       <use xlink:href="#DejaVuSans-36" x="95.410156"/>
      </g>
     </g>
    </g>
    <g id="xtick_5">
     <g id="line2d_5">
      <g>
       <use xlink:href="#me0197a735e" x="245.909091" y="242.008" style="stroke: #000000; stroke-width: 0.8"/>
      </g>
     </g>
     <g id="text_5">
      <!-- 0.8 -->
      <g transform="translate(237.957528 256.606437) scale(0.1 -0.1)">
       <defs>
        <path id="DejaVuSans-38" d="M 2034 2216 
Q 1584 2216 1326 1975 
Q 1069 1734 1069 1313 
Q 1069 891 1326 650 
Q 1584 409 2034 409 
Q 2484 409 2743 651 
Q 3003 894 3003 1313 
Q 3003 1734 2745 1975 
Q 2488 2216 2034 2216 
z
M 1403 2484 
Q 997 2584 770 2862 
Q 544 3141 544 3541 
Q 544 4100 942 4425 
Q 1341 4750 2034 4750 
Q 2731 4750 3128 4425 
Q 3525 4100 3525 3541 
Q 3525 3141 3298 2862 
Q 3072 2584 2669 2484 
Q 3125 2378 3379 2068 
Q 3634 1759 3634 1313 
Q 3634 634 3220 271 
Q 2806 -91 2034 -91 
Q 1263 -91 848 271 
Q 434 634 434 1313 
Q 434 1759 690 2068 
Q 947 2378 1403 2484 
z
M 1172 3481 
Q 1172 3119 1398 2916 
Q 1625 2713 2034 2713 
Q 2441 2713 2670 2916 
Q 2900 3119 2900 3481 
Q 2900 3844 2670 4047 
Q 2441 4250 2034 4250 
Q 1625 4250 1398 4047 
Q 1172 3844 1172 3481 
z
" transform="scale(0.015625)"/>
       </defs>
       <use xlink:href="#DejaVuSans-30"/>
       <use xlink:href="#DejaVuSans-2e" x="63.623047"/>
       <use xlink:href="#DejaVuSans-38" x="95.410156"/>
      </g>
     </g>
    </g>
    <g id="xtick_6">
     <g id="line2d_6">
      <g>
       <use xlink:href="#me0197a735e" x="292.541818" y="242.008" style="stroke: #000000; stroke-width: 0.8"/>
      </g>
     </g>
     <g id="text_6">
      <!-- 1.0 -->
      <g transform="translate(284.590256 256.606437) scale(0.1 -0.1)">
       <defs>
        <path id="DejaVuSans-31" d="M 794 531 
L 1825 531 
L 1825 4091 
L 703 3866 
L 703 4441 
L 1819 4666 
L 2450 4666 
L 2450 531 
L 3481 531 
L 3481 0 
L 794 0 
L 794 531 
z
" transform="scale(0.015625)"/>
       </defs>
       <use xlink:href="#DejaVuSans-31"/>
       <use xlink:href="#DejaVuSans-2e" x="63.623047"/>
       <use xlink:href="#DejaVuSans-30" x="95.410156"/>
      </g>
     </g>
    </g>
    <g id="text_7">
     <!-- FPR -->
     <g transform="translate(166.595156 270.284562) scale(0.1 -0.1)">
      <defs>
       <path id="DejaVuSans-46" d="M 628 4666 
L 3309 4666 
L 3309 4134 
L 1259 4134 
L 1259 2759 
L 3109 2759 
L 3109 2228 
L 1259 2228 
L 1259 0 
L 628 0 
L 628 4666 
z
" transform="scale(0.015625)"/>
       <path id="DejaVuSans-50" d="M 1259 4147 
L 1259 2394 
L 2053 2394 
Q 2494 2394 2734 2622 
Q 2975 2850 2975 3272 
Q 2975 3691 2734 3919 
Q 2494 4147 2053 4147 
L 1259 4147 
z
M 628 4666 
L 2053 4666 
Q 2838 4666 3239 4311 
Q 3641 3956 3641 3272 
Q 3641 2581 3239 2228 
Q 2838 1875 2053 1875 
L 1259 1875 
L 1259 0 
L 628 0 
L 628 4666 
z
" transform="scale(0.015625)"/>
       <path id="DejaVuSans-52" d="M 2841 2188 
Q 3044 2119 3236 1894 
Q 3428 1669 3622 1275 
L 4263 0 
L 3584 0 
L 2988 1197 
Q 2756 1666 2539 1819 
Q 2322 1972 1947 1972 
L 1259 1972 
L 1259 0 
L 628 0 
L 628 4666 
L 2053 4666 
Q 2853 4666 3247 4331 
Q 3641 3997 3641 3322 
Q 3641 2881 3436 2590 
Q 3231 2300 2841 2188 
z
M 1259 4147 
L 1259 2491 
L 2053 2491 
Q 2509 2491 2742 2702 
Q 2975 2913 2975 3322 
Q 2975 3731 2742 3939 
Q 2509 4147 2053 4147 
L 1259 4147 
z
" transform="scale(0.015625)"/>
      </defs>
      <use xlink:href="#DejaVuSans-46"/>
      <use xlink:href="#DejaVuSans-50" x="57.519531"/>
      <use xlink:href="#DejaVuSans-52" x="117.822266"/>
     </g>
    </g>
   </g>
   <g id="matplotlib.axis_2">
    <g id="ytick_1">
     <g id="line2d_7">
      <defs>
       <path id="mebccf89c7a" d="M 0 0 
L -3.5 0 
" style="stroke: #000000; stroke-width: 0.8"/>
      </defs>
      <g>
       <use xlink:href="#mebccf89c7a" x="47.72" y="231.530887" style="stroke: #000000; stroke-width: 0.8"/>
      </g>
     </g>
     <g id="text_8">
      <!-- 0.0 -->
      <g transform="translate(24.816875 235.330106) scale(0.1 -0.1)">
       <use xlink:href="#DejaVuSans-30"/>
       <use xlink:href="#DejaVuSans-2e" x="63.623047"/>
       <use xlink:href="#DejaVuSans-30" x="95.410156"/>
      </g>
     </g>
    </g>
    <g id="ytick_2">
     <g id="line2d_8">
      <g>
       <use xlink:href="#mebccf89c7a" x="47.72" y="189.486601" style="stroke: #000000; stroke-width: 0.8"/>
      </g>
     </g>
     <g id="text_9">
      <!-- 0.2 -->
      <g transform="translate(24.816875 193.285819) scale(0.1 -0.1)">
       <use xlink:href="#DejaVuSans-30"/>
       <use xlink:href="#DejaVuSans-2e" x="63.623047"/>
       <use xlink:href="#DejaVuSans-32" x="95.410156"/>
      </g>
     </g>
    </g>
    <g id="ytick_3">
     <g id="line2d_9">
      <g>
       <use xlink:href="#mebccf89c7a" x="47.72" y="147.442314" style="stroke: #000000; stroke-width: 0.8"/>
      </g>
     </g>
     <g id="text_10">
      <!-- 0.4 -->
      <g transform="translate(24.816875 151.241533) scale(0.1 -0.1)">
       <use xlink:href="#DejaVuSans-30"/>
       <use xlink:href="#DejaVuSans-2e" x="63.623047"/>
       <use xlink:href="#DejaVuSans-34" x="95.410156"/>
      </g>
     </g>
    </g>
    <g id="ytick_4">
     <g id="line2d_10">
      <g>
       <use xlink:href="#mebccf89c7a" x="47.72" y="105.398028" style="stroke: #000000; stroke-width: 0.8"/>
      </g>
     </g>
     <g id="text_11">
      <!-- 0.6 -->
      <g transform="translate(24.816875 109.197246) scale(0.1 -0.1)">
       <use xlink:href="#DejaVuSans-30"/>
       <use xlink:href="#DejaVuSans-2e" x="63.623047"/>
       <use xlink:href="#DejaVuSans-36" x="95.410156"/>
      </g>
     </g>
    </g>
    <g id="ytick_5">
     <g id="line2d_11">
      <g>
       <use xlink:href="#mebccf89c7a" x="47.72" y="63.353741" style="stroke: #000000; stroke-width: 0.8"/>
      </g>
     </g>
     <g id="text_12">
      <!-- 0.8 -->
      <g transform="translate(24.816875 67.15296) scale(0.1 -0.1)">
       <use xlink:href="#DejaVuSans-30"/>
       <use xlink:href="#DejaVuSans-2e" x="63.623047"/>
       <use xlink:href="#DejaVuSans-38" x="95.410156"/>
      </g>
     </g>
    </g>
    <g id="ytick_6">
     <g id="line2d_12">
      <g>
       <use xlink:href="#mebccf89c7a" x="47.72" y="21.309455" style="stroke: #000000; stroke-width: 0.8"/>
      </g>
     </g>
     <g id="text_13">
      <!-- 1.0 -->
      <g transform="translate(24.816875 25.108673) scale(0.1 -0.1)">
       <use xlink:href="#DejaVuSans-31"/>
       <use xlink:href="#DejaVuSans-2e" x="63.623047"/>
       <use xlink:href="#DejaVuSans-30" x="95.410156"/>
      </g>
     </g>
    </g>
    <g id="text_14">
     <!-- TPR -->
     <g transform="translate(18.737188 135.946969) rotate(-90) scale(0.1 -0.1)">
      <defs>
       <path id="DejaVuSans-54" d="M -19 4666 
L 3928 4666 
L 3928 4134 
L 2272 4134 
L 2272 0 
L 1638 0 
L 1638 4134 
L -19 4134 
L -19 4666 
z
" transform="scale(0.015625)"/>
      </defs>
      <use xlink:href="#DejaVuSans-54"/>
      <use xlink:href="#DejaVuSans-50" x="61.083984"/>
      <use xlink:href="#DejaVuSans-52" x="121.386719"/>
     </g>
    </g>
   </g>
   <g id="line2d_13">
    <path d="M 292.541818 21.309455 
L 292.4752 21.309455 
L 292.275345 21.309455 
L 291.342691 21.309455 
L 288.211636 21.309455 
L 275.887273 21.309455 
L 275.887273 21.309455 
L 272.822836 21.309455 
L 268.825745 21.309455 
L 266.027782 21.309455 
L 261.297891 21.309455 
L 256.634618 21.309455 
L 251.4384 21.309455 
L 244.709964 21.309455 
L 236.582545 21.309455 
L 228.455127 21.309455 
L 218.728873 21.309455 
L 209.468945 21.309455 
L 199.476218 21.309455 
L 186.419055 21.309455 
L 173.162036 21.309455 
L 157.440145 21.309455 
L 141.451782 21.309455 
L 125.996364 21.309455 
L 125.996364 21.309455 
L 123.265018 21.309455 
L 121.133236 21.309455 
L 119.134691 21.309455 
L 116.6032 21.309455 
L 113.472145 21.309455 
L 111.540218 21.309455 
L 109.141964 21.309455 
L 105.877673 21.309455 
L 102.879855 21.309455 
L 99.948655 21.309455 
L 97.683636 21.309455 
L 94.752436 21.309455 
L 91.821236 21.309455 
L 88.623564 21.309455 
L 85.692364 21.309455 
L 83.027636 21.309455 
L 80.163055 21.309455 
L 78.231127 21.309455 
L 75.766255 21.40648 
L 72.6352 21.503505 
L 70.103709 21.891606 
L 67.5056 22.958884 
L 65.640291 26.063693 
L 63.641745 33.114197 
L 61.243491 49.996595 
L 60.044364 85.346137 
L 59.644655 117.881947 
L 59.511418 136.995926 
L 59.378182 150.67649 
L 59.378182 150.67649 
L 59.378182 162.44889 
L 59.378182 172.345468 
L 59.378182 180.721984 
L 59.378182 187.707804 
L 59.378182 193.691029 
L 59.378182 198.865711 
L 59.378182 202.843747 
L 59.378182 206.854125 
L 59.378182 210.120643 
L 59.378182 212.384566 
L 59.378182 214.648489 
L 59.378182 216.653678 
L 59.378182 218.400133 
L 59.378182 219.920196 
L 59.378182 221.084499 
L 59.378182 222.345828 
L 59.378182 223.445447 
L 59.378182 223.445447 
L 59.378182 228.426078 
L 59.378182 230.463609 
L 59.378182 231.20747 
L 59.378182 231.433862 
L 59.378182 231.498545 
" clip-path="url(#p17defa44ee)" style="fill: none; stroke: #1f77b4; stroke-width: 1.5; stroke-linecap: square"/>
   </g>
   <g id="patch_3">
    <path d="M 47.72 242.008 
L 47.72 10.8 
" style="fill: none; stroke: #000000; stroke-width: 0.8; stroke-linejoin: miter; stroke-linecap: square"/>
   </g>
   <g id="patch_4">
    <path d="M 304.2 242.008 
L 304.2 10.8 
" style="fill: none; stroke: #000000; stroke-width: 0.8; stroke-linejoin: miter; stroke-linecap: square"/>
   </g>
   <g id="patch_5">
    <path d="M 47.72 242.008 
L 304.2 242.008 
" style="fill: none; stroke: #000000; stroke-width: 0.8; stroke-linejoin: miter; stroke-linecap: square"/>
   </g>
   <g id="patch_6">
    <path d="M 47.72 10.8 
L 304.2 10.8 
" style="fill: none; stroke: #000000; stroke-width: 0.8; stroke-linejoin: miter; stroke-linecap: square"/>
   </g>
   <g id="patch_7">
    <path d="M 165.431874 121.01458 
Q 117.175511 72.69444 69.709195 25.165391 
" style="fill: none; stroke: #000000; stroke-linecap: round"/>
    <path d="M 71.120606 29.408965 
L 69.709195 25.165391 
L 73.950901 26.582406 
" style="fill: none; stroke: #000000; stroke-linecap: round"/>
   </g>
   <g id="text_15">
    <!-- Min Error = 1.73% -->
    <g transform="translate(149.112873 132.031489) scale(0.1 -0.1)">
     <defs>
      <path id="DejaVuSans-4d" d="M 628 4666 
L 1569 4666 
L 2759 1491 
L 3956 4666 
L 4897 4666 
L 4897 0 
L 4281 0 
L 4281 4097 
L 3078 897 
L 2444 897 
L 1241 4097 
L 1241 0 
L 628 0 
L 628 4666 
z
" transform="scale(0.015625)"/>
      <path id="DejaVuSans-69" d="M 603 3500 
L 1178 3500 
L 1178 0 
L 603 0 
L 603 3500 
z
M 603 4863 
L 1178 4863 
L 1178 4134 
L 603 4134 
L 603 4863 
z
" transform="scale(0.015625)"/>
      <path id="DejaVuSans-6e" d="M 3513 2113 
L 3513 0 
L 2938 0 
L 2938 2094 
Q 2938 2591 2744 2837 
Q 2550 3084 2163 3084 
Q 1697 3084 1428 2787 
Q 1159 2491 1159 1978 
L 1159 0 
L 581 0 
L 581 3500 
L 1159 3500 
L 1159 2956 
Q 1366 3272 1645 3428 
Q 1925 3584 2291 3584 
Q 2894 3584 3203 3211 
Q 3513 2838 3513 2113 
z
" transform="scale(0.015625)"/>
      <path id="DejaVuSans-20" transform="scale(0.015625)"/>
      <path id="DejaVuSans-45" d="M 628 4666 
L 3578 4666 
L 3578 4134 
L 1259 4134 
L 1259 2753 
L 3481 2753 
L 3481 2222 
L 1259 2222 
L 1259 531 
L 3634 531 
L 3634 0 
L 628 0 
L 628 4666 
z
" transform="scale(0.015625)"/>
      <path id="DejaVuSans-72" d="M 2631 2963 
Q 2534 3019 2420 3045 
Q 2306 3072 2169 3072 
Q 1681 3072 1420 2755 
Q 1159 2438 1159 1844 
L 1159 0 
L 581 0 
L 581 3500 
L 1159 3500 
L 1159 2956 
Q 1341 3275 1631 3429 
Q 1922 3584 2338 3584 
Q 2397 3584 2469 3576 
Q 2541 3569 2628 3553 
L 2631 2963 
z
" transform="scale(0.015625)"/>
      <path id="DejaVuSans-6f" d="M 1959 3097 
Q 1497 3097 1228 2736 
Q 959 2375 959 1747 
Q 959 1119 1226 758 
Q 1494 397 1959 397 
Q 2419 397 2687 759 
Q 2956 1122 2956 1747 
Q 2956 2369 2687 2733 
Q 2419 3097 1959 3097 
z
M 1959 3584 
Q 2709 3584 3137 3096 
Q 3566 2609 3566 1747 
Q 3566 888 3137 398 
Q 2709 -91 1959 -91 
Q 1206 -91 779 398 
Q 353 888 353 1747 
Q 353 2609 779 3096 
Q 1206 3584 1959 3584 
z
" transform="scale(0.015625)"/>
      <path id="DejaVuSans-3d" d="M 678 2906 
L 4684 2906 
L 4684 2381 
L 678 2381 
L 678 2906 
z
M 678 1631 
L 4684 1631 
L 4684 1100 
L 678 1100 
L 678 1631 
z
" transform="scale(0.015625)"/>
      <path id="DejaVuSans-37" d="M 525 4666 
L 3525 4666 
L 3525 4397 
L 1831 0 
L 1172 0 
L 2766 4134 
L 525 4134 
L 525 4666 
z
" transform="scale(0.015625)"/>
      <path id="DejaVuSans-33" d="M 2597 2516 
Q 3050 2419 3304 2112 
Q 3559 1806 3559 1356 
Q 3559 666 3084 287 
Q 2609 -91 1734 -91 
Q 1441 -91 1130 -33 
Q 819 25 488 141 
L 488 750 
Q 750 597 1062 519 
Q 1375 441 1716 441 
Q 2309 441 2620 675 
Q 2931 909 2931 1356 
Q 2931 1769 2642 2001 
Q 2353 2234 1838 2234 
L 1294 2234 
L 1294 2753 
L 1863 2753 
Q 2328 2753 2575 2939 
Q 2822 3125 2822 3475 
Q 2822 3834 2567 4026 
Q 2313 4219 1838 4219 
Q 1578 4219 1281 4162 
Q 984 4106 628 3988 
L 628 4550 
Q 988 4650 1302 4700 
Q 1616 4750 1894 4750 
Q 2613 4750 3031 4423 
Q 3450 4097 3450 3541 
Q 3450 3153 3228 2886 
Q 3006 2619 2597 2516 
z
" transform="scale(0.015625)"/>
      <path id="DejaVuSans-25" d="M 4653 2053 
Q 4381 2053 4226 1822 
Q 4072 1591 4072 1178 
Q 4072 772 4226 539 
Q 4381 306 4653 306 
Q 4919 306 5073 539 
Q 5228 772 5228 1178 
Q 5228 1588 5073 1820 
Q 4919 2053 4653 2053 
z
M 4653 2450 
Q 5147 2450 5437 2106 
Q 5728 1763 5728 1178 
Q 5728 594 5436 251 
Q 5144 -91 4653 -91 
Q 4153 -91 3862 251 
Q 3572 594 3572 1178 
Q 3572 1766 3864 2108 
Q 4156 2450 4653 2450 
z
M 1428 4353 
Q 1159 4353 1004 4120 
Q 850 3888 850 3481 
Q 850 3069 1003 2837 
Q 1156 2606 1428 2606 
Q 1700 2606 1854 2837 
Q 2009 3069 2009 3481 
Q 2009 3884 1853 4118 
Q 1697 4353 1428 4353 
z
M 4250 4750 
L 4750 4750 
L 1831 -91 
L 1331 -91 
L 4250 4750 
z
M 1428 4750 
Q 1922 4750 2215 4408 
Q 2509 4066 2509 3481 
Q 2509 2891 2217 2550 
Q 1925 2209 1428 2209 
Q 931 2209 642 2551 
Q 353 2894 353 3481 
Q 353 4063 643 4406 
Q 934 4750 1428 4750 
z
" transform="scale(0.015625)"/>
     </defs>
     <use xlink:href="#DejaVuSans-4d"/>
     <use xlink:href="#DejaVuSans-69" x="86.279297"/>
     <use xlink:href="#DejaVuSans-6e" x="114.0625"/>
     <use xlink:href="#DejaVuSans-20" x="177.441406"/>
     <use xlink:href="#DejaVuSans-45" x="209.228516"/>
     <use xlink:href="#DejaVuSans-72" x="272.412109"/>
     <use xlink:href="#DejaVuSans-72" x="311.775391"/>
     <use xlink:href="#DejaVuSans-6f" x="350.638672"/>
     <use xlink:href="#DejaVuSans-72" x="411.820312"/>
     <use xlink:href="#DejaVuSans-20" x="452.933594"/>
     <use xlink:href="#DejaVuSans-3d" x="484.720703"/>
     <use xlink:href="#DejaVuSans-20" x="568.509766"/>
     <use xlink:href="#DejaVuSans-31" x="600.296875"/>
     <use xlink:href="#DejaVuSans-2e" x="663.919922"/>
     <use xlink:href="#DejaVuSans-37" x="695.707031"/>
     <use xlink:href="#DejaVuSans-33" x="759.330078"/>
     <use xlink:href="#DejaVuSans-25" x="822.953125"/>
    </g>
    <!--             Gamma = 1.38 -->
    <g transform="translate(149.112873 143.229301) scale(0.1 -0.1)">
     <defs>
      <path id="DejaVuSans-47" d="M 3809 666 
L 3809 1919 
L 2778 1919 
L 2778 2438 
L 4434 2438 
L 4434 434 
Q 4069 175 3628 42 
Q 3188 -91 2688 -91 
Q 1594 -91 976 548 
Q 359 1188 359 2328 
Q 359 3472 976 4111 
Q 1594 4750 2688 4750 
Q 3144 4750 3555 4637 
Q 3966 4525 4313 4306 
L 4313 3634 
Q 3963 3931 3569 4081 
Q 3175 4231 2741 4231 
Q 1884 4231 1454 3753 
Q 1025 3275 1025 2328 
Q 1025 1384 1454 906 
Q 1884 428 2741 428 
Q 3075 428 3337 486 
Q 3600 544 3809 666 
z
" transform="scale(0.015625)"/>
      <path id="DejaVuSans-61" d="M 2194 1759 
Q 1497 1759 1228 1600 
Q 959 1441 959 1056 
Q 959 750 1161 570 
Q 1363 391 1709 391 
Q 2188 391 2477 730 
Q 2766 1069 2766 1631 
L 2766 1759 
L 2194 1759 
z
M 3341 1997 
L 3341 0 
L 2766 0 
L 2766 531 
Q 2569 213 2275 61 
Q 1981 -91 1556 -91 
Q 1019 -91 701 211 
Q 384 513 384 1019 
Q 384 1609 779 1909 
Q 1175 2209 1959 2209 
L 2766 2209 
L 2766 2266 
Q 2766 2663 2505 2880 
Q 2244 3097 1772 3097 
Q 1472 3097 1187 3025 
Q 903 2953 641 2809 
L 641 3341 
Q 956 3463 1253 3523 
Q 1550 3584 1831 3584 
Q 2591 3584 2966 3190 
Q 3341 2797 3341 1997 
z
" transform="scale(0.015625)"/>
      <path id="DejaVuSans-6d" d="M 3328 2828 
Q 3544 3216 3844 3400 
Q 4144 3584 4550 3584 
Q 5097 3584 5394 3201 
Q 5691 2819 5691 2113 
L 5691 0 
L 5113 0 
L 5113 2094 
Q 5113 2597 4934 2840 
Q 4756 3084 4391 3084 
Q 3944 3084 3684 2787 
Q 3425 2491 3425 1978 
L 3425 0 
L 2847 0 
L 2847 2094 
Q 2847 2600 2669 2842 
Q 2491 3084 2119 3084 
Q 1678 3084 1418 2786 
Q 1159 2488 1159 1978 
L 1159 0 
L 581 0 
L 581 3500 
L 1159 3500 
L 1159 2956 
Q 1356 3278 1631 3431 
Q 1906 3584 2284 3584 
Q 2666 3584 2933 3390 
Q 3200 3197 3328 2828 
z
" transform="scale(0.015625)"/>
     </defs>
     <use xlink:href="#DejaVuSans-20"/>
     <use xlink:href="#DejaVuSans-20" x="31.787109"/>
     <use xlink:href="#DejaVuSans-20" x="63.574219"/>
     <use xlink:href="#DejaVuSans-20" x="95.361328"/>
     <use xlink:href="#DejaVuSans-20" x="127.148438"/>
     <use xlink:href="#DejaVuSans-20" x="158.935547"/>
     <use xlink:href="#DejaVuSans-20" x="190.722656"/>
     <use xlink:href="#DejaVuSans-20" x="222.509766"/>
     <use xlink:href="#DejaVuSans-20" x="254.296875"/>
     <use xlink:href="#DejaVuSans-20" x="286.083984"/>
     <use xlink:href="#DejaVuSans-20" x="317.871094"/>
     <use xlink:href="#DejaVuSans-20" x="349.658203"/>
     <use xlink:href="#DejaVuSans-47" x="381.445312"/>
     <use xlink:href="#DejaVuSans-61" x="458.935547"/>
     <use xlink:href="#DejaVuSans-6d" x="520.214844"/>
     <use xlink:href="#DejaVuSans-6d" x="617.626953"/>
     <use xlink:href="#DejaVuSans-61" x="715.039062"/>
     <use xlink:href="#DejaVuSans-20" x="776.318359"/>
     <use xlink:href="#DejaVuSans-3d" x="808.105469"/>
     <use xlink:href="#DejaVuSans-20" x="891.894531"/>
     <use xlink:href="#DejaVuSans-31" x="923.681641"/>
     <use xlink:href="#DejaVuSans-2e" x="987.304688"/>
     <use xlink:href="#DejaVuSans-33" x="1019.091797"/>
     <use xlink:href="#DejaVuSans-38" x="1082.714844"/>
    </g>
    <!--             FPR = 3.49% -->
    <g transform="translate(149.112873 154.427114) scale(0.1 -0.1)">
     <defs>
      <path id="DejaVuSans-39" d="M 703 97 
L 703 672 
Q 941 559 1184 500 
Q 1428 441 1663 441 
Q 2288 441 2617 861 
Q 2947 1281 2994 2138 
Q 2813 1869 2534 1725 
Q 2256 1581 1919 1581 
Q 1219 1581 811 2004 
Q 403 2428 403 3163 
Q 403 3881 828 4315 
Q 1253 4750 1959 4750 
Q 2769 4750 3195 4129 
Q 3622 3509 3622 2328 
Q 3622 1225 3098 567 
Q 2575 -91 1691 -91 
Q 1453 -91 1209 -44 
Q 966 3 703 97 
z
M 1959 2075 
Q 2384 2075 2632 2365 
Q 2881 2656 2881 3163 
Q 2881 3666 2632 3958 
Q 2384 4250 1959 4250 
Q 1534 4250 1286 3958 
Q 1038 3666 1038 3163 
Q 1038 2656 1286 2365 
Q 1534 2075 1959 2075 
z
" transform="scale(0.015625)"/>
     </defs>
     <use xlink:href="#DejaVuSans-20"/>
     <use xlink:href="#DejaVuSans-20" x="31.787109"/>
     <use xlink:href="#DejaVuSans-20" x="63.574219"/>
     <use xlink:href="#DejaVuSans-20" x="95.361328"/>
     <use xlink:href="#DejaVuSans-20" x="127.148438"/>
     <use xlink:href="#DejaVuSans-20" x="158.935547"/>
     <use xlink:href="#DejaVuSans-20" x="190.722656"/>
     <use xlink:href="#DejaVuSans-20" x="222.509766"/>
     <use xlink:href="#DejaVuSans-20" x="254.296875"/>
     <use xlink:href="#DejaVuSans-20" x="286.083984"/>
     <use xlink:href="#DejaVuSans-20" x="317.871094"/>
     <use xlink:href="#DejaVuSans-20" x="349.658203"/>
     <use xlink:href="#DejaVuSans-46" x="381.445312"/>
     <use xlink:href="#DejaVuSans-50" x="438.964844"/>
     <use xlink:href="#DejaVuSans-52" x="499.267578"/>
     <use xlink:href="#DejaVuSans-20" x="568.75"/>
     <use xlink:href="#DejaVuSans-3d" x="600.537109"/>
     <use xlink:href="#DejaVuSans-20" x="684.326172"/>
     <use xlink:href="#DejaVuSans-33" x="716.113281"/>
     <use xlink:href="#DejaVuSans-2e" x="779.736328"/>
     <use xlink:href="#DejaVuSans-34" x="811.523438"/>
     <use xlink:href="#DejaVuSans-39" x="875.146484"/>
     <use xlink:href="#DejaVuSans-25" x="938.769531"/>
    </g>
    <!--             TPR = 99.22% -->
    <g transform="translate(149.112873 165.624926) scale(0.1 -0.1)">
     <use xlink:href="#DejaVuSans-20"/>
     <use xlink:href="#DejaVuSans-20" x="31.787109"/>
     <use xlink:href="#DejaVuSans-20" x="63.574219"/>
     <use xlink:href="#DejaVuSans-20" x="95.361328"/>
     <use xlink:href="#DejaVuSans-20" x="127.148438"/>
     <use xlink:href="#DejaVuSans-20" x="158.935547"/>
     <use xlink:href="#DejaVuSans-20" x="190.722656"/>
     <use xlink:href="#DejaVuSans-20" x="222.509766"/>
     <use xlink:href="#DejaVuSans-20" x="254.296875"/>
     <use xlink:href="#DejaVuSans-20" x="286.083984"/>
     <use xlink:href="#DejaVuSans-20" x="317.871094"/>
     <use xlink:href="#DejaVuSans-20" x="349.658203"/>
     <use xlink:href="#DejaVuSans-54" x="381.445312"/>
     <use xlink:href="#DejaVuSans-50" x="442.529297"/>
     <use xlink:href="#DejaVuSans-52" x="502.832031"/>
     <use xlink:href="#DejaVuSans-20" x="572.314453"/>
     <use xlink:href="#DejaVuSans-3d" x="604.101562"/>
     <use xlink:href="#DejaVuSans-20" x="687.890625"/>
     <use xlink:href="#DejaVuSans-39" x="719.677734"/>
     <use xlink:href="#DejaVuSans-39" x="783.300781"/>
     <use xlink:href="#DejaVuSans-2e" x="846.923828"/>
     <use xlink:href="#DejaVuSans-32" x="878.710938"/>
     <use xlink:href="#DejaVuSans-32" x="942.333984"/>
     <use xlink:href="#DejaVuSans-25" x="1005.957031"/>
    </g>
    <!--             FNR = 0.78% -->
    <g transform="translate(149.112873 176.822739) scale(0.1 -0.1)">
     <defs>
      <path id="DejaVuSans-4e" d="M 628 4666 
L 1478 4666 
L 3547 763 
L 3547 4666 
L 4159 4666 
L 4159 0 
L 3309 0 
L 1241 3903 
L 1241 0 
L 628 0 
L 628 4666 
z
" transform="scale(0.015625)"/>
     </defs>
     <use xlink:href="#DejaVuSans-20"/>
     <use xlink:href="#DejaVuSans-20" x="31.787109"/>
     <use xlink:href="#DejaVuSans-20" x="63.574219"/>
     <use xlink:href="#DejaVuSans-20" x="95.361328"/>
     <use xlink:href="#DejaVuSans-20" x="127.148438"/>
     <use xlink:href="#DejaVuSans-20" x="158.935547"/>
     <use xlink:href="#DejaVuSans-20" x="190.722656"/>
     <use xlink:href="#DejaVuSans-20" x="222.509766"/>
     <use xlink:href="#DejaVuSans-20" x="254.296875"/>
     <use xlink:href="#DejaVuSans-20" x="286.083984"/>
     <use xlink:href="#DejaVuSans-20" x="317.871094"/>
     <use xlink:href="#DejaVuSans-20" x="349.658203"/>
     <use xlink:href="#DejaVuSans-46" x="381.445312"/>
     <use xlink:href="#DejaVuSans-4e" x="438.964844"/>
     <use xlink:href="#DejaVuSans-52" x="513.769531"/>
     <use xlink:href="#DejaVuSans-20" x="583.251953"/>
     <use xlink:href="#DejaVuSans-3d" x="615.039062"/>
     <use xlink:href="#DejaVuSans-20" x="698.828125"/>
     <use xlink:href="#DejaVuSans-30" x="730.615234"/>
     <use xlink:href="#DejaVuSans-2e" x="794.238281"/>
     <use xlink:href="#DejaVuSans-37" x="826.025391"/>
     <use xlink:href="#DejaVuSans-38" x="889.648438"/>
     <use xlink:href="#DejaVuSans-25" x="953.271484"/>
    </g>
    <!--             TNR = 96.51% -->
    <g transform="translate(149.112873 188.020551) scale(0.1 -0.1)">
     <defs>
      <path id="DejaVuSans-35" d="M 691 4666 
L 3169 4666 
L 3169 4134 
L 1269 4134 
L 1269 2991 
Q 1406 3038 1543 3061 
Q 1681 3084 1819 3084 
Q 2600 3084 3056 2656 
Q 3513 2228 3513 1497 
Q 3513 744 3044 326 
Q 2575 -91 1722 -91 
Q 1428 -91 1123 -41 
Q 819 9 494 109 
L 494 744 
Q 775 591 1075 516 
Q 1375 441 1709 441 
Q 2250 441 2565 725 
Q 2881 1009 2881 1497 
Q 2881 1984 2565 2268 
Q 2250 2553 1709 2553 
Q 1456 2553 1204 2497 
Q 953 2441 691 2322 
L 691 4666 
z
" transform="scale(0.015625)"/>
     </defs>
     <use xlink:href="#DejaVuSans-20"/>
     <use xlink:href="#DejaVuSans-20" x="31.787109"/>
     <use xlink:href="#DejaVuSans-20" x="63.574219"/>
     <use xlink:href="#DejaVuSans-20" x="95.361328"/>
     <use xlink:href="#DejaVuSans-20" x="127.148438"/>
     <use xlink:href="#DejaVuSans-20" x="158.935547"/>
     <use xlink:href="#DejaVuSans-20" x="190.722656"/>
     <use xlink:href="#DejaVuSans-20" x="222.509766"/>
     <use xlink:href="#DejaVuSans-20" x="254.296875"/>
     <use xlink:href="#DejaVuSans-20" x="286.083984"/>
     <use xlink:href="#DejaVuSans-20" x="317.871094"/>
     <use xlink:href="#DejaVuSans-20" x="349.658203"/>
     <use xlink:href="#DejaVuSans-54" x="381.445312"/>
     <use xlink:href="#DejaVuSans-4e" x="442.529297"/>
     <use xlink:href="#DejaVuSans-52" x="517.333984"/>
     <use xlink:href="#DejaVuSans-20" x="586.816406"/>
     <use xlink:href="#DejaVuSans-3d" x="618.603516"/>
     <use xlink:href="#DejaVuSans-20" x="702.392578"/>
     <use xlink:href="#DejaVuSans-39" x="734.179688"/>
     <use xlink:href="#DejaVuSans-36" x="797.802734"/>
     <use xlink:href="#DejaVuSans-2e" x="861.425781"/>
     <use xlink:href="#DejaVuSans-35" x="893.212891"/>
     <use xlink:href="#DejaVuSans-31" x="956.835938"/>
     <use xlink:href="#DejaVuSans-25" x="1020.458984"/>
    </g>
    <!--             Risk = 0.0137a.u. -->
    <g transform="translate(149.112873 199.218364) scale(0.1 -0.1)">
     <defs>
      <path id="DejaVuSans-73" d="M 2834 3397 
L 2834 2853 
Q 2591 2978 2328 3040 
Q 2066 3103 1784 3103 
Q 1356 3103 1142 2972 
Q 928 2841 928 2578 
Q 928 2378 1081 2264 
Q 1234 2150 1697 2047 
L 1894 2003 
Q 2506 1872 2764 1633 
Q 3022 1394 3022 966 
Q 3022 478 2636 193 
Q 2250 -91 1575 -91 
Q 1294 -91 989 -36 
Q 684 19 347 128 
L 347 722 
Q 666 556 975 473 
Q 1284 391 1588 391 
Q 1994 391 2212 530 
Q 2431 669 2431 922 
Q 2431 1156 2273 1281 
Q 2116 1406 1581 1522 
L 1381 1569 
Q 847 1681 609 1914 
Q 372 2147 372 2553 
Q 372 3047 722 3315 
Q 1072 3584 1716 3584 
Q 2034 3584 2315 3537 
Q 2597 3491 2834 3397 
z
" transform="scale(0.015625)"/>
      <path id="DejaVuSans-6b" d="M 581 4863 
L 1159 4863 
L 1159 1991 
L 2875 3500 
L 3609 3500 
L 1753 1863 
L 3688 0 
L 2938 0 
L 1159 1709 
L 1159 0 
L 581 0 
L 581 4863 
z
" transform="scale(0.015625)"/>
      <path id="DejaVuSans-75" d="M 544 1381 
L 544 3500 
L 1119 3500 
L 1119 1403 
Q 1119 906 1312 657 
Q 1506 409 1894 409 
Q 2359 409 2629 706 
Q 2900 1003 2900 1516 
L 2900 3500 
L 3475 3500 
L 3475 0 
L 2900 0 
L 2900 538 
Q 2691 219 2414 64 
Q 2138 -91 1772 -91 
Q 1169 -91 856 284 
Q 544 659 544 1381 
z
M 1991 3584 
L 1991 3584 
z
" transform="scale(0.015625)"/>
     </defs>
     <use xlink:href="#DejaVuSans-20"/>
     <use xlink:href="#DejaVuSans-20" x="31.787109"/>
     <use xlink:href="#DejaVuSans-20" x="63.574219"/>
     <use xlink:href="#DejaVuSans-20" x="95.361328"/>
     <use xlink:href="#DejaVuSans-20" x="127.148438"/>
     <use xlink:href="#DejaVuSans-20" x="158.935547"/>
     <use xlink:href="#DejaVuSans-20" x="190.722656"/>
     <use xlink:href="#DejaVuSans-20" x="222.509766"/>
     <use xlink:href="#DejaVuSans-20" x="254.296875"/>
     <use xlink:href="#DejaVuSans-20" x="286.083984"/>
     <use xlink:href="#DejaVuSans-20" x="317.871094"/>
     <use xlink:href="#DejaVuSans-20" x="349.658203"/>
     <use xlink:href="#DejaVuSans-52" x="381.445312"/>
     <use xlink:href="#DejaVuSans-69" x="450.927734"/>
     <use xlink:href="#DejaVuSans-73" x="478.710938"/>
     <use xlink:href="#DejaVuSans-6b" x="530.810547"/>
     <use xlink:href="#DejaVuSans-20" x="588.720703"/>
     <use xlink:href="#DejaVuSans-3d" x="620.507812"/>
     <use xlink:href="#DejaVuSans-20" x="704.296875"/>
     <use xlink:href="#DejaVuSans-30" x="736.083984"/>
     <use xlink:href="#DejaVuSans-2e" x="799.707031"/>
     <use xlink:href="#DejaVuSans-30" x="831.494141"/>
     <use xlink:href="#DejaVuSans-31" x="895.117188"/>
     <use xlink:href="#DejaVuSans-33" x="958.740234"/>
     <use xlink:href="#DejaVuSans-37" x="1022.363281"/>
     <use xlink:href="#DejaVuSans-61" x="1085.986328"/>
     <use xlink:href="#DejaVuSans-2e" x="1147.265625"/>
     <use xlink:href="#DejaVuSans-75" x="1179.052734"/>
     <use xlink:href="#DejaVuSans-2e" x="1242.431641"/>
    </g>
    <!--             B = 0.3 -->
    <g transform="translate(149.112873 210.416176) scale(0.1 -0.1)">
     <defs>
      <path id="DejaVuSans-42" d="M 1259 2228 
L 1259 519 
L 2272 519 
Q 2781 519 3026 730 
Q 3272 941 3272 1375 
Q 3272 1813 3026 2020 
Q 2781 2228 2272 2228 
L 1259 2228 
z
M 1259 4147 
L 1259 2741 
L 2194 2741 
Q 2656 2741 2882 2914 
Q 3109 3088 3109 3444 
Q 3109 3797 2882 3972 
Q 2656 4147 2194 4147 
L 1259 4147 
z
M 628 4666 
L 2241 4666 
Q 2963 4666 3353 4366 
Q 3744 4066 3744 3513 
Q 3744 3084 3544 2831 
Q 3344 2578 2956 2516 
Q 3422 2416 3680 2098 
Q 3938 1781 3938 1306 
Q 3938 681 3513 340 
Q 3088 0 2303 0 
L 628 0 
L 628 4666 
z
" transform="scale(0.015625)"/>
     </defs>
     <use xlink:href="#DejaVuSans-20"/>
     <use xlink:href="#DejaVuSans-20" x="31.787109"/>
     <use xlink:href="#DejaVuSans-20" x="63.574219"/>
     <use xlink:href="#DejaVuSans-20" x="95.361328"/>
     <use xlink:href="#DejaVuSans-20" x="127.148438"/>
     <use xlink:href="#DejaVuSans-20" x="158.935547"/>
     <use xlink:href="#DejaVuSans-20" x="190.722656"/>
     <use xlink:href="#DejaVuSans-20" x="222.509766"/>
     <use xlink:href="#DejaVuSans-20" x="254.296875"/>
     <use xlink:href="#DejaVuSans-20" x="286.083984"/>
     <use xlink:href="#DejaVuSans-20" x="317.871094"/>
     <use xlink:href="#DejaVuSans-20" x="349.658203"/>
     <use xlink:href="#DejaVuSans-42" x="381.445312"/>
     <use xlink:href="#DejaVuSans-20" x="450.048828"/>
     <use xlink:href="#DejaVuSans-3d" x="481.835938"/>
     <use xlink:href="#DejaVuSans-20" x="565.625"/>
     <use xlink:href="#DejaVuSans-30" x="597.412109"/>
     <use xlink:href="#DejaVuSans-2e" x="661.035156"/>
     <use xlink:href="#DejaVuSans-33" x="692.822266"/>
    </g>
   </g>
  </g>
  <g id="axes_2">
   <g id="patch_8">
    <path d="M 358.22 242.008 
L 614.7 242.008 
L 614.7 10.8 
L 358.22 10.8 
z
" style="fill: #ffffff"/>
   </g>
   <g id="matplotlib.axis_3">
    <g id="xtick_7">
     <g id="line2d_14">
      <g>
       <use xlink:href="#me0197a735e" x="389.76375" y="242.008" style="stroke: #000000; stroke-width: 0.8"/>
      </g>
     </g>
     <g id="text_16">
      <!-- $\mathdefault{10^{-138}}$ -->
      <g transform="translate(373.56375 256.606437) scale(0.1 -0.1)">
       <defs>
        <path id="DejaVuSans-2212" d="M 678 2272 
L 4684 2272 
L 4684 1741 
L 678 1741 
L 678 2272 
z
" transform="scale(0.015625)"/>
       </defs>
       <use xlink:href="#DejaVuSans-31" transform="translate(0 0.765625)"/>
       <use xlink:href="#DejaVuSans-30" transform="translate(63.623047 0.765625)"/>
       <use xlink:href="#DejaVuSans-2212" transform="translate(128.203125 39.046875) scale(0.7)"/>
       <use xlink:href="#DejaVuSans-31" transform="translate(186.855469 39.046875) scale(0.7)"/>
       <use xlink:href="#DejaVuSans-33" transform="translate(231.391602 39.046875) scale(0.7)"/>
       <use xlink:href="#DejaVuSans-38" transform="translate(275.927734 39.046875) scale(0.7)"/>
      </g>
     </g>
    </g>
    <g id="xtick_8">
     <g id="line2d_15">
      <g>
       <use xlink:href="#me0197a735e" x="422.542997" y="242.008" style="stroke: #000000; stroke-width: 0.8"/>
      </g>
     </g>
     <g id="text_17">
      <!-- $\mathdefault{10^{-112}}$ -->
      <g transform="translate(406.342997 256.606437) scale(0.1 -0.1)">
       <use xlink:href="#DejaVuSans-31" transform="translate(0 0.765625)"/>
       <use xlink:href="#DejaVuSans-30" transform="translate(63.623047 0.765625)"/>
       <use xlink:href="#DejaVuSans-2212" transform="translate(128.203125 39.046875) scale(0.7)"/>
       <use xlink:href="#DejaVuSans-31" transform="translate(186.855469 39.046875) scale(0.7)"/>
       <use xlink:href="#DejaVuSans-31" transform="translate(231.391602 39.046875) scale(0.7)"/>
       <use xlink:href="#DejaVuSans-32" transform="translate(275.927734 39.046875) scale(0.7)"/>
      </g>
     </g>
    </g>
    <g id="xtick_9">
     <g id="line2d_16">
      <g>
       <use xlink:href="#me0197a735e" x="455.322244" y="242.008" style="stroke: #000000; stroke-width: 0.8"/>
      </g>
     </g>
     <g id="text_18">
      <!-- $\mathdefault{10^{-86}}$ -->
      <g transform="translate(441.372244 256.606437) scale(0.1 -0.1)">
       <use xlink:href="#DejaVuSans-31" transform="translate(0 0.765625)"/>
       <use xlink:href="#DejaVuSans-30" transform="translate(63.623047 0.765625)"/>
       <use xlink:href="#DejaVuSans-2212" transform="translate(128.203125 39.046875) scale(0.7)"/>
       <use xlink:href="#DejaVuSans-38" transform="translate(186.855469 39.046875) scale(0.7)"/>
       <use xlink:href="#DejaVuSans-36" transform="translate(231.391602 39.046875) scale(0.7)"/>
      </g>
     </g>
    </g>
    <g id="xtick_10">
     <g id="line2d_17">
      <g>
       <use xlink:href="#me0197a735e" x="488.101491" y="242.008" style="stroke: #000000; stroke-width: 0.8"/>
      </g>
     </g>
     <g id="text_19">
      <!-- $\mathdefault{10^{-60}}$ -->
      <g transform="translate(474.151491 256.606437) scale(0.1 -0.1)">
       <use xlink:href="#DejaVuSans-31" transform="translate(0 0.765625)"/>
       <use xlink:href="#DejaVuSans-30" transform="translate(63.623047 0.765625)"/>
       <use xlink:href="#DejaVuSans-2212" transform="translate(128.203125 39.046875) scale(0.7)"/>
       <use xlink:href="#DejaVuSans-36" transform="translate(186.855469 39.046875) scale(0.7)"/>
       <use xlink:href="#DejaVuSans-30" transform="translate(231.391602 39.046875) scale(0.7)"/>
      </g>
     </g>
    </g>
    <g id="xtick_11">
     <g id="line2d_18">
      <g>
       <use xlink:href="#me0197a735e" x="520.880738" y="242.008" style="stroke: #000000; stroke-width: 0.8"/>
      </g>
     </g>
     <g id="text_20">
      <!-- $\mathdefault{10^{-34}}$ -->
      <g transform="translate(506.930738 256.606437) scale(0.1 -0.1)">
       <use xlink:href="#DejaVuSans-31" transform="translate(0 0.765625)"/>
       <use xlink:href="#DejaVuSans-30" transform="translate(63.623047 0.765625)"/>
       <use xlink:href="#DejaVuSans-2212" transform="translate(128.203125 39.046875) scale(0.7)"/>
       <use xlink:href="#DejaVuSans-33" transform="translate(186.855469 39.046875) scale(0.7)"/>
       <use xlink:href="#DejaVuSans-34" transform="translate(231.391602 39.046875) scale(0.7)"/>
      </g>
     </g>
    </g>
    <g id="xtick_12">
     <g id="line2d_19">
      <g>
       <use xlink:href="#me0197a735e" x="553.659985" y="242.008" style="stroke: #000000; stroke-width: 0.8"/>
      </g>
     </g>
     <g id="text_21">
      <!-- $\mathdefault{10^{-8}}$ -->
      <g transform="translate(541.909985 256.606437) scale(0.1 -0.1)">
       <use xlink:href="#DejaVuSans-31" transform="translate(0 0.765625)"/>
       <use xlink:href="#DejaVuSans-30" transform="translate(63.623047 0.765625)"/>
       <use xlink:href="#DejaVuSans-2212" transform="translate(128.203125 39.046875) scale(0.7)"/>
       <use xlink:href="#DejaVuSans-38" transform="translate(186.855469 39.046875) scale(0.7)"/>
      </g>
     </g>
    </g>
    <g id="xtick_13">
     <g id="line2d_20">
      <g>
       <use xlink:href="#me0197a735e" x="586.439232" y="242.008" style="stroke: #000000; stroke-width: 0.8"/>
      </g>
     </g>
     <g id="text_22">
      <!-- $\mathdefault{10^{18}}$ -->
      <g transform="translate(575.389232 256.606437) scale(0.1 -0.1)">
       <use xlink:href="#DejaVuSans-31" transform="translate(0 0.765625)"/>
       <use xlink:href="#DejaVuSans-30" transform="translate(63.623047 0.765625)"/>
       <use xlink:href="#DejaVuSans-31" transform="translate(128.203125 39.046875) scale(0.7)"/>
       <use xlink:href="#DejaVuSans-38" transform="translate(172.739258 39.046875) scale(0.7)"/>
      </g>
     </g>
    </g>
    <g id="text_23">
     <!-- $\gamma$ -->
     <g transform="translate(483.46 270.26425) scale(0.1 -0.1)">
      <defs>
       <path id="DejaVuSans-Oblique-3b3" d="M 1491 2950 
L 1838 788 
L 3456 3500 
L 4066 3500 
L 1972 0 
L 1713 -1331 
L 1138 -1331 
L 1397 0 
L 988 2613 
Q 925 3006 628 3006 
L 475 3006 
L 569 3500 
L 788 3500 
Q 1403 3500 1491 2950 
z
" transform="scale(0.015625)"/>
      </defs>
      <use xlink:href="#DejaVuSans-Oblique-3b3" transform="translate(0 0.3125)"/>
     </g>
    </g>
   </g>
   <g id="matplotlib.axis_4">
    <g id="ytick_7">
     <g id="line2d_21">
      <g>
       <use xlink:href="#mebccf89c7a" x="358.22" y="237.246682" style="stroke: #000000; stroke-width: 0.8"/>
      </g>
     </g>
     <g id="text_24">
      <!-- 0 -->
      <g transform="translate(344.8575 241.045901) scale(0.1 -0.1)">
       <use xlink:href="#DejaVuSans-30"/>
      </g>
     </g>
    </g>
    <g id="ytick_8">
     <g id="line2d_22">
      <g>
       <use xlink:href="#mebccf89c7a" x="358.22" y="204.020458" style="stroke: #000000; stroke-width: 0.8"/>
      </g>
     </g>
     <g id="text_25">
      <!-- 10 -->
      <g transform="translate(338.495 207.819677) scale(0.1 -0.1)">
       <use xlink:href="#DejaVuSans-31"/>
       <use xlink:href="#DejaVuSans-30" x="63.623047"/>
      </g>
     </g>
    </g>
    <g id="ytick_9">
     <g id="line2d_23">
      <g>
       <use xlink:href="#mebccf89c7a" x="358.22" y="170.794235" style="stroke: #000000; stroke-width: 0.8"/>
      </g>
     </g>
     <g id="text_26">
      <!-- 20 -->
      <g transform="translate(338.495 174.593454) scale(0.1 -0.1)">
       <use xlink:href="#DejaVuSans-32"/>
       <use xlink:href="#DejaVuSans-30" x="63.623047"/>
      </g>
     </g>
    </g>
    <g id="ytick_10">
     <g id="line2d_24">
      <g>
       <use xlink:href="#mebccf89c7a" x="358.22" y="137.568011" style="stroke: #000000; stroke-width: 0.8"/>
      </g>
     </g>
     <g id="text_27">
      <!-- 30 -->
      <g transform="translate(338.495 141.36723) scale(0.1 -0.1)">
       <use xlink:href="#DejaVuSans-33"/>
       <use xlink:href="#DejaVuSans-30" x="63.623047"/>
      </g>
     </g>
    </g>
    <g id="ytick_11">
     <g id="line2d_25">
      <g>
       <use xlink:href="#mebccf89c7a" x="358.22" y="104.341787" style="stroke: #000000; stroke-width: 0.8"/>
      </g>
     </g>
     <g id="text_28">
      <!-- 40 -->
      <g transform="translate(338.495 108.141006) scale(0.1 -0.1)">
       <use xlink:href="#DejaVuSans-34"/>
       <use xlink:href="#DejaVuSans-30" x="63.623047"/>
      </g>
     </g>
    </g>
    <g id="ytick_12">
     <g id="line2d_26">
      <g>
       <use xlink:href="#mebccf89c7a" x="358.22" y="71.115564" style="stroke: #000000; stroke-width: 0.8"/>
      </g>
     </g>
     <g id="text_29">
      <!-- 50 -->
      <g transform="translate(338.495 74.914783) scale(0.1 -0.1)">
       <use xlink:href="#DejaVuSans-35"/>
       <use xlink:href="#DejaVuSans-30" x="63.623047"/>
      </g>
     </g>
    </g>
    <g id="ytick_13">
     <g id="line2d_27">
      <g>
       <use xlink:href="#mebccf89c7a" x="358.22" y="37.88934" style="stroke: #000000; stroke-width: 0.8"/>
      </g>
     </g>
     <g id="text_30">
      <!-- 60 -->
      <g transform="translate(338.495 41.688559) scale(0.1 -0.1)">
       <use xlink:href="#DejaVuSans-36"/>
       <use xlink:href="#DejaVuSans-30" x="63.623047"/>
      </g>
     </g>
    </g>
    <g id="text_31">
     <!-- Error (%) -->
     <g transform="translate(332.415313 148.830562) rotate(-90) scale(0.1 -0.1)">
      <defs>
       <path id="DejaVuSans-28" d="M 1984 4856 
Q 1566 4138 1362 3434 
Q 1159 2731 1159 2009 
Q 1159 1288 1364 580 
Q 1569 -128 1984 -844 
L 1484 -844 
Q 1016 -109 783 600 
Q 550 1309 550 2009 
Q 550 2706 781 3412 
Q 1013 4119 1484 4856 
L 1984 4856 
z
" transform="scale(0.015625)"/>
       <path id="DejaVuSans-29" d="M 513 4856 
L 1013 4856 
Q 1481 4119 1714 3412 
Q 1947 2706 1947 2009 
Q 1947 1309 1714 600 
Q 1481 -109 1013 -844 
L 513 -844 
Q 928 -128 1133 580 
Q 1338 1288 1338 2009 
Q 1338 2731 1133 3434 
Q 928 4138 513 4856 
z
" transform="scale(0.015625)"/>
      </defs>
      <use xlink:href="#DejaVuSans-45"/>
      <use xlink:href="#DejaVuSans-72" x="63.183594"/>
      <use xlink:href="#DejaVuSans-72" x="102.546875"/>
      <use xlink:href="#DejaVuSans-6f" x="141.410156"/>
      <use xlink:href="#DejaVuSans-72" x="202.591797"/>
      <use xlink:href="#DejaVuSans-20" x="243.705078"/>
      <use xlink:href="#DejaVuSans-28" x="275.492188"/>
      <use xlink:href="#DejaVuSans-25" x="314.505859"/>
      <use xlink:href="#DejaVuSans-29" x="409.525391"/>
     </g>
    </g>
   </g>
   <g id="line2d_28">
    <path d="M -1 120.976575 
L 369.878182 120.988126 
L 401.335278 121.087804 
L 432.792375 121.552971 
L 464.249472 123.114604 
L 495.706568 129.261455 
L 495.706568 129.261455 
L 499.033035 130.789862 
L 502.359502 132.783435 
L 505.685969 134.178936 
L 509.012436 136.537998 
L 512.338903 138.863834 
L 515.66537 141.455479 
L 518.991836 144.811328 
L 522.318303 148.864927 
L 525.64477 152.918526 
L 528.971237 157.769555 
L 532.297704 162.388 
L 535.624171 167.371934 
L 538.950638 173.884274 
L 542.277105 180.496292 
L 545.603572 188.337681 
L 548.930038 196.311975 
L 552.256505 204.020458 
L 552.256505 204.020458 
L 552.786787 205.382734 
L 553.317068 206.445973 
L 553.84735 207.44276 
L 554.377631 208.705356 
L 554.907913 210.266989 
L 555.438194 211.230549 
L 555.968476 212.426693 
L 556.498757 214.054778 
L 557.029039 215.549958 
L 557.55932 217.011912 
L 558.089602 218.141604 
L 558.619883 219.603557 
L 559.150165 221.065511 
L 559.680446 222.66037 
L 560.210728 224.122324 
L 560.741009 225.451373 
L 561.271291 226.8801 
L 561.801572 227.843661 
L 562.331854 228.973352 
L 562.862135 230.435306 
L 563.392416 231.299188 
L 563.922698 231.498545 
L 564.452979 229.239162 
L 564.983261 222.992632 
L 565.513542 206.844687 
L 566.043824 171.126497 
L 566.574105 137.900273 
L 567.104387 118.330028 
L 567.634668 104.341787 
L 567.634668 104.341787 
L 568.199741 92.247442 
L 568.764815 82.080218 
L 569.329888 73.474626 
L 569.894961 66.297761 
L 570.460034 60.15091 
L 571.025107 54.834714 
L 571.59018 50.747889 
L 572.155253 46.627837 
L 572.720326 43.271988 
L 573.285399 40.946153 
L 573.850473 38.620317 
L 574.415546 36.560291 
L 574.980619 34.766075 
L 575.545692 33.204443 
L 576.110765 32.008299 
L 576.675838 30.712476 
L 577.240911 29.582784 
L 577.240911 29.582784 
L 582.401093 24.465946 
L 587.561274 22.372694 
L 592.721455 21.608491 
L 597.881637 21.375907 
L 603.041818 21.309455 
" clip-path="url(#p819b1d59cf)" style="fill: none; stroke: #1f77b4; stroke-width: 1.5; stroke-linecap: square"/>
   </g>
   <g id="patch_9">
    <path d="M 358.22 242.008 
L 358.22 10.8 
" style="fill: none; stroke: #000000; stroke-width: 0.8; stroke-linejoin: miter; stroke-linecap: square"/>
   </g>
   <g id="patch_10">
    <path d="M 614.7 242.008 
L 614.7 10.8 
" style="fill: none; stroke: #000000; stroke-width: 0.8; stroke-linejoin: miter; stroke-linecap: square"/>
   </g>
   <g id="patch_11">
    <path d="M 358.22 242.008 
L 614.7 242.008 
" style="fill: none; stroke: #000000; stroke-width: 0.8; stroke-linejoin: miter; stroke-linecap: square"/>
   </g>
   <g id="patch_12">
    <path d="M 358.22 10.8 
L 614.7 10.8 
" style="fill: none; stroke: #000000; stroke-width: 0.8; stroke-linejoin: miter; stroke-linecap: square"/>
   </g>
  </g>
  <g id="axes_3">
   <g id="patch_13">
    <path d="M 668.72 242.008 
L 925.2 242.008 
L 925.2 10.8 
L 668.72 10.8 
z
" style="fill: #ffffff"/>
   </g>
   <g id="matplotlib.axis_5">
    <g id="xtick_14">
     <g id="line2d_29">
      <g>
       <use xlink:href="#me0197a735e" x="700.26375" y="242.008" style="stroke: #000000; stroke-width: 0.8"/>
      </g>
     </g>
     <g id="text_32">
      <!-- $\mathdefault{10^{-138}}$ -->
      <g transform="translate(684.06375 256.606437) scale(0.1 -0.1)">
       <use xlink:href="#DejaVuSans-31" transform="translate(0 0.765625)"/>
       <use xlink:href="#DejaVuSans-30" transform="translate(63.623047 0.765625)"/>
       <use xlink:href="#DejaVuSans-2212" transform="translate(128.203125 39.046875) scale(0.7)"/>
       <use xlink:href="#DejaVuSans-31" transform="translate(186.855469 39.046875) scale(0.7)"/>
       <use xlink:href="#DejaVuSans-33" transform="translate(231.391602 39.046875) scale(0.7)"/>
       <use xlink:href="#DejaVuSans-38" transform="translate(275.927734 39.046875) scale(0.7)"/>
      </g>
     </g>
    </g>
    <g id="xtick_15">
     <g id="line2d_30">
      <g>
       <use xlink:href="#me0197a735e" x="733.042997" y="242.008" style="stroke: #000000; stroke-width: 0.8"/>
      </g>
     </g>
     <g id="text_33">
      <!-- $\mathdefault{10^{-112}}$ -->
      <g transform="translate(716.842997 256.606437) scale(0.1 -0.1)">
       <use xlink:href="#DejaVuSans-31" transform="translate(0 0.765625)"/>
       <use xlink:href="#DejaVuSans-30" transform="translate(63.623047 0.765625)"/>
       <use xlink:href="#DejaVuSans-2212" transform="translate(128.203125 39.046875) scale(0.7)"/>
       <use xlink:href="#DejaVuSans-31" transform="translate(186.855469 39.046875) scale(0.7)"/>
       <use xlink:href="#DejaVuSans-31" transform="translate(231.391602 39.046875) scale(0.7)"/>
       <use xlink:href="#DejaVuSans-32" transform="translate(275.927734 39.046875) scale(0.7)"/>
      </g>
     </g>
    </g>
    <g id="xtick_16">
     <g id="line2d_31">
      <g>
       <use xlink:href="#me0197a735e" x="765.822244" y="242.008" style="stroke: #000000; stroke-width: 0.8"/>
      </g>
     </g>
     <g id="text_34">
      <!-- $\mathdefault{10^{-86}}$ -->
      <g transform="translate(751.872244 256.606437) scale(0.1 -0.1)">
       <use xlink:href="#DejaVuSans-31" transform="translate(0 0.765625)"/>
       <use xlink:href="#DejaVuSans-30" transform="translate(63.623047 0.765625)"/>
       <use xlink:href="#DejaVuSans-2212" transform="translate(128.203125 39.046875) scale(0.7)"/>
       <use xlink:href="#DejaVuSans-38" transform="translate(186.855469 39.046875) scale(0.7)"/>
       <use xlink:href="#DejaVuSans-36" transform="translate(231.391602 39.046875) scale(0.7)"/>
      </g>
     </g>
    </g>
    <g id="xtick_17">
     <g id="line2d_32">
      <g>
       <use xlink:href="#me0197a735e" x="798.601491" y="242.008" style="stroke: #000000; stroke-width: 0.8"/>
      </g>
     </g>
     <g id="text_35">
      <!-- $\mathdefault{10^{-60}}$ -->
      <g transform="translate(784.651491 256.606437) scale(0.1 -0.1)">
       <use xlink:href="#DejaVuSans-31" transform="translate(0 0.765625)"/>
       <use xlink:href="#DejaVuSans-30" transform="translate(63.623047 0.765625)"/>
       <use xlink:href="#DejaVuSans-2212" transform="translate(128.203125 39.046875) scale(0.7)"/>
       <use xlink:href="#DejaVuSans-36" transform="translate(186.855469 39.046875) scale(0.7)"/>
       <use xlink:href="#DejaVuSans-30" transform="translate(231.391602 39.046875) scale(0.7)"/>
      </g>
     </g>
    </g>
    <g id="xtick_18">
     <g id="line2d_33">
      <g>
       <use xlink:href="#me0197a735e" x="831.380738" y="242.008" style="stroke: #000000; stroke-width: 0.8"/>
      </g>
     </g>
     <g id="text_36">
      <!-- $\mathdefault{10^{-34}}$ -->
      <g transform="translate(817.430738 256.606437) scale(0.1 -0.1)">
       <use xlink:href="#DejaVuSans-31" transform="translate(0 0.765625)"/>
       <use xlink:href="#DejaVuSans-30" transform="translate(63.623047 0.765625)"/>
       <use xlink:href="#DejaVuSans-2212" transform="translate(128.203125 39.046875) scale(0.7)"/>
       <use xlink:href="#DejaVuSans-33" transform="translate(186.855469 39.046875) scale(0.7)"/>
       <use xlink:href="#DejaVuSans-34" transform="translate(231.391602 39.046875) scale(0.7)"/>
      </g>
     </g>
    </g>
    <g id="xtick_19">
     <g id="line2d_34">
      <g>
       <use xlink:href="#me0197a735e" x="864.159985" y="242.008" style="stroke: #000000; stroke-width: 0.8"/>
      </g>
     </g>
     <g id="text_37">
      <!-- $\mathdefault{10^{-8}}$ -->
      <g transform="translate(852.409985 256.606437) scale(0.1 -0.1)">
       <use xlink:href="#DejaVuSans-31" transform="translate(0 0.765625)"/>
       <use xlink:href="#DejaVuSans-30" transform="translate(63.623047 0.765625)"/>
       <use xlink:href="#DejaVuSans-2212" transform="translate(128.203125 39.046875) scale(0.7)"/>
       <use xlink:href="#DejaVuSans-38" transform="translate(186.855469 39.046875) scale(0.7)"/>
      </g>
     </g>
    </g>
    <g id="xtick_20">
     <g id="line2d_35">
      <g>
       <use xlink:href="#me0197a735e" x="896.939232" y="242.008" style="stroke: #000000; stroke-width: 0.8"/>
      </g>
     </g>
     <g id="text_38">
      <!-- $\mathdefault{10^{18}}$ -->
      <g transform="translate(885.889232 256.606437) scale(0.1 -0.1)">
       <use xlink:href="#DejaVuSans-31" transform="translate(0 0.765625)"/>
       <use xlink:href="#DejaVuSans-30" transform="translate(63.623047 0.765625)"/>
       <use xlink:href="#DejaVuSans-31" transform="translate(128.203125 39.046875) scale(0.7)"/>
       <use xlink:href="#DejaVuSans-38" transform="translate(172.739258 39.046875) scale(0.7)"/>
      </g>
     </g>
    </g>
    <g id="text_39">
     <!-- $\gamma$ -->
     <g transform="translate(793.96 270.26425) scale(0.1 -0.1)">
      <use xlink:href="#DejaVuSans-Oblique-3b3" transform="translate(0 0.3125)"/>
     </g>
    </g>
   </g>
   <g id="matplotlib.axis_6">
    <g id="ytick_14">
     <g id="line2d_36">
      <g>
       <use xlink:href="#mebccf89c7a" x="668.72" y="240.080626" style="stroke: #000000; stroke-width: 0.8"/>
      </g>
     </g>
     <g id="text_40">
      <!-- 0.00 -->
      <g transform="translate(639.454375 243.879845) scale(0.1 -0.1)">
       <use xlink:href="#DejaVuSans-30"/>
       <use xlink:href="#DejaVuSans-2e" x="63.623047"/>
       <use xlink:href="#DejaVuSans-30" x="95.410156"/>
       <use xlink:href="#DejaVuSans-30" x="159.033203"/>
      </g>
     </g>
    </g>
    <g id="ytick_15">
     <g id="line2d_37">
      <g>
       <use xlink:href="#mebccf89c7a" x="668.72" y="208.827601" style="stroke: #000000; stroke-width: 0.8"/>
      </g>
     </g>
     <g id="text_41">
      <!-- 0.05 -->
      <g transform="translate(639.454375 212.62682) scale(0.1 -0.1)">
       <use xlink:href="#DejaVuSans-30"/>
       <use xlink:href="#DejaVuSans-2e" x="63.623047"/>
       <use xlink:href="#DejaVuSans-30" x="95.410156"/>
       <use xlink:href="#DejaVuSans-35" x="159.033203"/>
      </g>
     </g>
    </g>
    <g id="ytick_16">
     <g id="line2d_38">
      <g>
       <use xlink:href="#mebccf89c7a" x="668.72" y="177.574577" style="stroke: #000000; stroke-width: 0.8"/>
      </g>
     </g>
     <g id="text_42">
      <!-- 0.10 -->
      <g transform="translate(639.454375 181.373796) scale(0.1 -0.1)">
       <use xlink:href="#DejaVuSans-30"/>
       <use xlink:href="#DejaVuSans-2e" x="63.623047"/>
       <use xlink:href="#DejaVuSans-31" x="95.410156"/>
       <use xlink:href="#DejaVuSans-30" x="159.033203"/>
      </g>
     </g>
    </g>
    <g id="ytick_17">
     <g id="line2d_39">
      <g>
       <use xlink:href="#mebccf89c7a" x="668.72" y="146.321553" style="stroke: #000000; stroke-width: 0.8"/>
      </g>
     </g>
     <g id="text_43">
      <!-- 0.15 -->
      <g transform="translate(639.454375 150.120771) scale(0.1 -0.1)">
       <use xlink:href="#DejaVuSans-30"/>
       <use xlink:href="#DejaVuSans-2e" x="63.623047"/>
       <use xlink:href="#DejaVuSans-31" x="95.410156"/>
       <use xlink:href="#DejaVuSans-35" x="159.033203"/>
      </g>
     </g>
    </g>
    <g id="ytick_18">
     <g id="line2d_40">
      <g>
       <use xlink:href="#mebccf89c7a" x="668.72" y="115.068528" style="stroke: #000000; stroke-width: 0.8"/>
      </g>
     </g>
     <g id="text_44">
      <!-- 0.20 -->
      <g transform="translate(639.454375 118.867747) scale(0.1 -0.1)">
       <use xlink:href="#DejaVuSans-30"/>
       <use xlink:href="#DejaVuSans-2e" x="63.623047"/>
       <use xlink:href="#DejaVuSans-32" x="95.410156"/>
       <use xlink:href="#DejaVuSans-30" x="159.033203"/>
      </g>
     </g>
    </g>
    <g id="ytick_19">
     <g id="line2d_41">
      <g>
       <use xlink:href="#mebccf89c7a" x="668.72" y="83.815504" style="stroke: #000000; stroke-width: 0.8"/>
      </g>
     </g>
     <g id="text_45">
      <!-- 0.25 -->
      <g transform="translate(639.454375 87.614722) scale(0.1 -0.1)">
       <use xlink:href="#DejaVuSans-30"/>
       <use xlink:href="#DejaVuSans-2e" x="63.623047"/>
       <use xlink:href="#DejaVuSans-32" x="95.410156"/>
       <use xlink:href="#DejaVuSans-35" x="159.033203"/>
      </g>
     </g>
    </g>
    <g id="ytick_20">
     <g id="line2d_42">
      <g>
       <use xlink:href="#mebccf89c7a" x="668.72" y="52.562479" style="stroke: #000000; stroke-width: 0.8"/>
      </g>
     </g>
     <g id="text_46">
      <!-- 0.30 -->
      <g transform="translate(639.454375 56.361698) scale(0.1 -0.1)">
       <use xlink:href="#DejaVuSans-30"/>
       <use xlink:href="#DejaVuSans-2e" x="63.623047"/>
       <use xlink:href="#DejaVuSans-33" x="95.410156"/>
       <use xlink:href="#DejaVuSans-30" x="159.033203"/>
      </g>
     </g>
    </g>
    <g id="ytick_21">
     <g id="line2d_43">
      <g>
       <use xlink:href="#mebccf89c7a" x="668.72" y="21.309455" style="stroke: #000000; stroke-width: 0.8"/>
      </g>
     </g>
     <g id="text_47">
      <!-- 0.35 -->
      <g transform="translate(639.454375 25.108673) scale(0.1 -0.1)">
       <use xlink:href="#DejaVuSans-30"/>
       <use xlink:href="#DejaVuSans-2e" x="63.623047"/>
       <use xlink:href="#DejaVuSans-33" x="95.410156"/>
       <use xlink:href="#DejaVuSans-35" x="159.033203"/>
      </g>
     </g>
    </g>
    <g id="text_48">
     <!-- Risk -->
     <g transform="translate(633.374687 136.767281) rotate(-90) scale(0.1 -0.1)">
      <use xlink:href="#DejaVuSans-52"/>
      <use xlink:href="#DejaVuSans-69" x="69.482422"/>
      <use xlink:href="#DejaVuSans-73" x="97.265625"/>
      <use xlink:href="#DejaVuSans-6b" x="149.365234"/>
     </g>
    </g>
   </g>
   <g id="line2d_44">
    <path d="M -1 21.33204 
L 680.378182 21.371961 
L 711.835278 21.559479 
L 743.292375 22.434563 
L 774.749472 25.372348 
L 806.206568 36.935967 
L 806.206568 36.935967 
L 809.533035 39.811245 
L 812.859502 43.561608 
L 816.185969 46.186862 
L 819.512436 50.624792 
L 822.838903 55.000215 
L 826.16537 59.875687 
L 829.491836 66.188798 
L 832.818303 73.814536 
L 836.14477 81.440274 
L 839.471237 90.566157 
L 842.797704 99.254498 
L 846.124171 108.630405 
L 849.450638 120.881591 
L 852.777105 133.320294 
L 856.103572 148.071722 
L 859.430038 163.073174 
L 862.756505 177.574577 
L 862.756505 177.574577 
L 863.286787 180.137325 
L 863.817068 182.137519 
L 864.34735 184.0127 
L 864.877631 186.38793 
L 865.407913 189.325714 
L 865.938194 191.13839 
L 866.468476 193.388607 
L 866.998757 196.451404 
L 867.529039 199.264176 
L 868.05932 202.014442 
L 868.589602 204.139648 
L 869.119883 206.889914 
L 869.650165 209.64018 
L 870.180446 212.64047 
L 870.710728 215.390737 
L 871.241009 217.890979 
L 871.771291 220.578739 
L 872.301572 222.391414 
L 872.831854 224.647882 
L 873.362135 227.529411 
L 873.892416 229.679619 
L 874.422698 231.498545 
L 874.952979 231.448541 
L 875.483261 229.235826 
L 876.013542 221.697597 
L 876.543824 202.326972 
L 877.074105 183.837683 
L 877.604387 172.880373 
L 878.134668 165.073367 
L 878.134668 165.073367 
L 878.699741 158.247707 
L 879.264815 152.509651 
L 879.829888 147.652931 
L 880.394961 143.602539 
L 880.960034 140.133454 
L 881.525107 137.133163 
L 882.09018 134.82669 
L 882.655253 132.501465 
L 883.220326 130.607532 
L 883.785399 129.294905 
L 884.350473 127.982278 
L 884.915546 126.819665 
L 885.480619 125.807067 
L 886.045692 124.925732 
L 886.610765 124.250667 
L 887.175838 123.519346 
L 887.740911 122.881784 
L 887.740911 122.881784 
L 892.901093 119.994005 
L 898.061274 118.81264 
L 903.221455 118.381349 
L 908.381637 118.250086 
L 913.541818 118.212582 
" clip-path="url(#pe6667a43db)" style="fill: none; stroke: #1f77b4; stroke-width: 1.5; stroke-linecap: square"/>
   </g>
   <g id="patch_14">
    <path d="M 668.72 242.008 
L 668.72 10.8 
" style="fill: none; stroke: #000000; stroke-width: 0.8; stroke-linejoin: miter; stroke-linecap: square"/>
   </g>
   <g id="patch_15">
    <path d="M 925.2 242.008 
L 925.2 10.8 
" style="fill: none; stroke: #000000; stroke-width: 0.8; stroke-linejoin: miter; stroke-linecap: square"/>
   </g>
   <g id="patch_16">
    <path d="M 668.72 242.008 
L 925.2 242.008 
" style="fill: none; stroke: #000000; stroke-width: 0.8; stroke-linejoin: miter; stroke-linecap: square"/>
   </g>
   <g id="patch_17">
    <path d="M 668.72 10.8 
L 925.2 10.8 
" style="fill: none; stroke: #000000; stroke-width: 0.8; stroke-linejoin: miter; stroke-linecap: square"/>
   </g>
  </g>
 </g>
 <defs>
  <clipPath id="p17defa44ee">
   <rect x="47.72" y="10.8" width="256.48" height="231.208"/>
  </clipPath>
  <clipPath id="p819b1d59cf">
   <rect x="358.22" y="10.8" width="256.48" height="231.208"/>
  </clipPath>
  <clipPath id="pe6667a43db">
   <rect x="668.72" y="10.8" width="256.48" height="231.208"/>
  </clipPath>
 </defs>
</svg>
